<?xml version="1.0" standalone="no"?>
<!DOCTYPE svg PUBLIC "-//W3C//DTD SVG 20010904//EN"
 "http://www.w3.org/TR/2001/REC-SVG-20010904/DTD/svg10.dtd">
<svg version="1.0" xmlns="http://www.w3.org/2000/svg"
 width="256.000000pt" height="256.000000pt" viewBox="0 0 256.000000 256.000000"
 preserveAspectRatio="xMidYMid meet">
<metadata>
Created by potrace 1.14, written by Peter Selinger 2001-2017
</metadata>
<g transform="translate(0.000000,256.000000) scale(0.100000,-0.100000)"
fill="#000000" stroke="none">
<path d="M1300 2185 l-25 -14 30 2 c30 2 30 2 33 -55 3 -54 -9 -77 -22 -43 -3
8 -16 15 -28 16 -13 0 -17 3 -10 6 6 2 12 9 12 15 0 6 -6 8 -14 5 -10 -4 -13
2 -12 22 l2 27 -56 -37 c-59 -40 -133 -65 -153 -52 -6 4 -23 6 -37 4 -30 -3
-135 -53 -170 -80 -24 -19 -24 -20 -6 -40 25 -28 52 -26 87 4 28 23 86 45 119
45 15 0 50 -59 50 -85 0 -18 -31 -35 -64 -35 -24 0 -113 -60 -130 -88 -22 -37
-132 -133 -186 -163 -19 -10 -42 -24 -50 -31 -21 -18 -48 -53 -34 -45 6 3 11
0 11 -7 0 -24 -89 -20 -127 6 -42 29 -47 44 -17 52 25 6 42 31 31 47 -3 5 -20
16 -37 25 -18 9 -43 26 -56 38 l-25 21 17 -27 c9 -16 24 -39 33 -53 9 -14 12
-25 6 -25 -11 0 -37 -71 -47 -130 -8 -45 20 -84 79 -111 46 -21 146 -25 178
-8 15 8 19 8 14 0 -4 -6 -2 -11 3 -11 6 0 11 17 12 38 1 20 4 48 9 62 l7 25 6
-25 c10 -40 27 -216 37 -382 9 -169 31 -269 83 -383 18 -38 32 -73 32 -78 0
-5 7 -14 15 -20 9 -7 30 -42 48 -79 18 -38 40 -68 48 -68 8 0 30 -25 50 -55
21 -33 46 -60 62 -66 15 -5 39 -24 53 -41 23 -27 28 -29 46 -17 19 11 25 9 56
-25 40 -42 59 -40 91 9 16 25 46 35 46 15 0 -21 30 -9 52 20 12 17 31 30 43
30 14 0 33 16 54 45 18 25 40 45 51 45 10 0 27 15 39 32 17 27 18 35 7 42 -11
8 -10 18 9 58 13 27 32 59 43 71 30 34 57 92 91 203 26 84 32 120 35 229 3 88
12 165 29 238 20 88 22 117 15 164 -7 45 -5 72 8 119 20 77 15 130 -23 218
-29 68 -92 146 -118 146 -27 0 -25 19 5 48 52 52 35 86 -26 53 -24 -13 -40
-16 -48 -10 -6 5 -29 23 -50 39 -43 34 -139 67 -144 50 -2 -5 -8 -10 -13 -10
-6 0 -7 5 -4 10 3 6 1 10 -5 10 -6 0 -27 11 -48 24 -51 33 -73 37 -102 21z
m195 -75 c-12 -5 -14 -9 -6 -9 8 -1 12 -3 10 -6 -3 -2 -16 -1 -29 2 -22 6 -23
7 -4 14 27 11 54 10 29 -1z m259 -74 c-3 -8 -14 -14 -24 -13 -10 1 -16 5 -14
9 3 5 10 6 15 3 5 -4 9 -1 9 4 0 6 4 11 10 11 5 0 7 -6 4 -14z m-94 -86 c0 -5
7 -10 15 -10 8 0 15 5 15 11 0 5 5 7 11 3 16 -10 -7 -20 -58 -27 -40 -5 -42
-4 -32 14 10 20 49 27 49 9z m-19 -312 c78 -34 97 -72 128 -258 40 -241 23
-461 -41 -515 -36 -31 -71 -32 -123 -3 -36 20 -52 22 -154 20 l-115 -3 27 21
c15 12 27 28 27 36 0 10 -5 9 -20 -6 -25 -25 -101 -28 -125 -4 -9 9 -18 14
-22 11 -3 -3 7 -17 22 -31 l28 -26 -107 0 c-87 0 -114 -4 -146 -20 -60 -30
-112 -27 -149 11 -17 17 -33 40 -36 52 -21 94 -25 131 -26 225 -1 110 28 302
57 385 17 49 57 94 99 112 46 20 627 14 676 -7z m-336 -811 c28 0 79 3 115 6
60 5 61 5 15 -3 -104 -19 -152 -20 -235 -6 l-85 15 70 -6 c39 -4 93 -6 120 -6z
m254 -40 c-1 -56 -26 -96 -83 -131 -42 -26 -51 -28 -79 -19 -18 6 -63 9 -102
6 -138 -9 -139 -9 -182 25 -43 34 -71 101 -58 141 9 28 16 27 51 -10 77 -83
215 -104 328 -50 34 17 72 44 84 61 29 38 42 31 41 -23z m-236 -4 c-13 -2 -33
-2 -45 0 -13 2 -3 4 22 4 25 0 35 -2 23 -4z"/>
<path d="M985 1408 c-33 -18 -65 -51 -65 -66 0 -11 3 -12 13 -4 27 23 100 32
160 20 49 -10 59 -10 72 3 22 22 9 46 -27 53 -48 9 -131 6 -153 -6z"/>
<path d="M1462 1413 c-29 -6 -39 -28 -22 -49 11 -12 28 -14 94 -8 63 5 90 3
119 -9 58 -25 42 14 -23 52 -34 20 -104 26 -168 14z"/>
<path d="M990 1235 c-38 -18 -70 -43 -70 -57 0 -5 13 0 29 11 36 26 44 26 36
1 -12 -38 3 -58 53 -69 29 -6 53 -6 64 0 13 7 18 6 18 -3 0 -23 20 15 20 40 0
27 7 28 33 5 20 -18 20 -18 3 12 -38 64 -118 90 -186 60z m56 -26 c10 -17 -13
-36 -27 -22 -12 12 -4 33 11 33 5 0 12 -5 16 -11z"/>
<path d="M1504 1240 c-25 -10 -84 -68 -84 -82 0 -6 8 -3 19 6 17 16 19 15 24
-14 8 -40 26 -45 97 -30 61 13 63 15 60 63 -2 32 10 35 35 7 23 -25 39 -26 26
-1 -23 43 -125 72 -177 51z m18 -52 c-9 -9 -15 -9 -24 0 -10 10 -10 15 2 22
20 12 38 -6 22 -22z"/>
<path d="M821 2034 c0 -11 3 -14 6 -6 3 7 2 16 -1 19 -3 4 -6 -2 -5 -13z"/>
<path d="M703 1364 c18 -19 -29 -66 -114 -114 -132 -76 -133 -80 -134 -368 0
-212 -1 -224 -20 -239 -11 -8 -19 -19 -17 -24 1 -5 -9 -14 -22 -19 -26 -9 -96
6 -96 22 0 5 -4 6 -10 3 -5 -3 -15 5 -22 19 -6 14 -15 26 -20 26 -24 0 101
-177 275 -389 74 -91 195 -251 200 -265 2 -6 8 -8 12 -4 4 4 -2 19 -13 35 -25
36 -37 73 -23 73 6 0 11 5 11 11 0 5 -4 7 -10 4 -6 -3 -7 1 -3 10 3 11 8 13
12 6 4 -7 28 9 60 40 l52 52 -4 117 c-2 82 -7 123 -17 135 -18 22 -18 101 0
90 6 -3 10 3 10 14 0 11 5 23 10 26 8 5 7 12 -2 23 -10 12 -10 14 0 8 29 -17
9 4 -29 30 -23 15 -61 54 -85 85 -51 66 -52 75 -28 244 8 61 19 142 24 180 5
39 12 94 16 123 5 39 3 52 -6 52 -8 0 -11 -3 -7 -6z"/>
<path d="M720 1145 c7 -8 17 -15 22 -15 6 0 5 7 -2 15 -7 8 -17 15 -22 15 -6
0 -5 -7 2 -15z"/>
<path d="M1855 1140 c-27 -30 -12 -34 15 -5 13 14 19 25 13 25 -5 0 -18 -9
-28 -20z"/>
<path d="M831 594 c0 -11 3 -14 6 -6 3 7 2 16 -1 19 -3 4 -6 -2 -5 -13z"/>
</g>
</svg>
